<svg id="Layer_1" data-name="Layer 1" xmlns="http://www.w3.org/2000/svg" viewBox="0 0 40 40"><path d="M35.87,13.8,27.76,7.22,23.07,3.41a4.64,4.64,0,0,0-6.13,0L12.68,6.86,4.17,13.77a2.44,2.44,0,0,0-1,2q0,6.9,0,13.81v5.75a2.22,2.22,0,0,0,2.39,2.4H14a2.22,2.22,0,0,0,2.41-2.42V23.18h7.28V35.36A2.22,2.22,0,0,0,26,37.75h8.39a2.2,2.2,0,0,0,2.35-2.35V15.72A2.35,2.35,0,0,0,35.87,13.8ZM23.66,20.72H16.29a2.19,2.19,0,0,0-2.37,2.36v12.2H5.66V16a.47.47,0,0,1,.2-.41c3.21-2.59,6.41-5.2,9.62-7.8l3-2.46a2.2,2.2,0,0,1,3,0l.68.56q6,4.86,12,9.74a.47.47,0,0,1,.16.3q0,8.55,0,17.11v2.29H26.08V23.15A2.21,2.21,0,0,0,23.66,20.72Z"/></svg>