<svg id="Layer_1" data-name="Layer 1" xmlns="http://www.w3.org/2000/svg" viewBox="0 0 40 40"><defs><style>.cls-1{fill:#fff;}</style></defs><path class="cls-1" d="M33.47,4.16a5.07,5.07,0,0,0-5.55.34,15.77,15.77,0,0,0-1.86,1.71L24,8.29l-2.45,2.45a1.45,1.45,0,0,0-.19.29L12.08,1.81a3,3,0,0,1-.23.26L2,12l-.22.19s0,0,0,.06l.14.11,8.83,8.8.22.24c-.09.08.93-1-3.54,3.46a1.7,1.7,0,0,0-.47.81c-.71,2.65-1.43,5.31-2.14,8A1.1,1.1,0,0,0,6.21,35l7.92-2.11a2,2,0,0,0,.89-.51L34.66,12.75a5.27,5.27,0,0,0,1.65-3.83A5.09,5.09,0,0,0,33.47,4.16Zm-21,15.54C7,14.27,9.5,16.76,4.72,12c2.39-2.4,4.81-4.81,7.2-7.19L13,5.92,11.58,7.37,13.1,8.89l1.44-1.44,1,1-2.43,2.44,1.55,1.54L17.09,10c.62.61.59.6,1.17,1.18-.43.41-.9.88-1.37,1.34l1.36,1.36Zm21-13.32a3.07,3.07,0,0,1,0,4.35L29.07,6.38A3.08,3.08,0,0,1,33.42,6.38ZM7,32.81,8.3,28l3.53,3.53Zm6.5-2.12L9.14,26.32C21.92,13.55,15.52,20,27.85,7.63L32.22,12C19.91,24.32,26.31,17.89,13.5,30.69Z"/><path class="cls-1" d="M38.14,28.12a1.58,1.58,0,0,1,.15-.12V28c-.06-.06-.13-.1-.18-.16-4.87-4.85-2.73-2.71-8.27-8.24l-.2-.19-2.9,2.95,1.58,1.56,1.3-1.33c.55.56.34.34,1,.95L28.12,25.9l1.59,1.6,2.43-2.44,1,1L31.7,27.48l1.43,1.44,1.47-1.48.73.71-7.24,7.23c-4.51-4.5-2.1-2.08-7.23-7.2l-1.57,1.57a1.34,1.34,0,0,1,.22.16l8.22,8.21a1.71,1.71,0,0,1,.18.2H28a1.58,1.58,0,0,1,.12-.15Z"/></svg>