<svg id="Layer_1" data-name="Layer 1" xmlns="http://www.w3.org/2000/svg" viewBox="0 0 40 40"><path d="M37.05,20a1.35,1.35,0,0,0-.68-1.19l-2.69-1.59,2.69-1.6a1.34,1.34,0,0,0,.68-1.19,1.36,1.36,0,0,0-.68-1.18L20.7,3.93a1.31,1.31,0,0,0-1.4,0L3.62,13.25A1.37,1.37,0,0,0,3,14.43a1.34,1.34,0,0,0,.68,1.19l2.69,1.6L3.63,18.81a1.38,1.38,0,0,0,0,2.38L6.3,22.78l-2.68,1.6A1.36,1.36,0,0,0,3,25.57a1.35,1.35,0,0,0,.68,1.18L19.3,36.07a1.32,1.32,0,0,0,1.4,0l15.68-9.32a1.38,1.38,0,0,0,0-2.37l-2.67-1.6,2.68-1.59A1.38,1.38,0,0,0,37.05,20ZM5.5,14.43,20,5.81l14.5,8.62-2.75,1.63-1.93,1.16-2.75,1.62L25.14,20,20,23.06,14.86,20l-1.93-1.16-2.75-1.62L8.25,16.06Zm29,11.14L20,34.19,5.5,25.57l2.75-1.63L19.3,30.5a1.33,1.33,0,0,0,1.4,0l11.06-6.56Zm-2.75-3.94-1.93,1.15L20,28.62l-9.82-5.84L8.24,21.63,5.5,20l2.75-1.63L11,20l1.94,1.15,6.37,3.79a1.33,1.33,0,0,0,1.4,0l6.37-3.79L29,20l2.74-1.63L34.5,20Z"/></svg>