<svg id="Layer_1" data-name="Layer 1" xmlns="http://www.w3.org/2000/svg" viewBox="0 0 40 40"><defs><style>.cls-1{fill:#fff;}</style></defs><path class="cls-1" d="M30.42,36.72H9.6a6.31,6.31,0,0,1-6.3-6.3V9.6A6.31,6.31,0,0,1,9.6,3.29H30.42A6.32,6.32,0,0,1,36.73,9.6V30.42A6.31,6.31,0,0,1,30.42,36.72ZM9.6,5.79A3.81,3.81,0,0,0,5.8,9.6V30.42a3.8,3.8,0,0,0,3.8,3.8H30.42a3.81,3.81,0,0,0,3.81-3.8V9.6a3.82,3.82,0,0,0-3.81-3.81Z"/><rect class="cls-1" x="11.63" y="11.76" width="20.29" height="2.88" rx="1.44"/><rect class="cls-1" x="8.11" y="17.69" width="23.81" height="2.88" rx="1.44"/><rect class="cls-1" x="8.11" y="23.62" width="17.29" height="2.88" rx="1.44"/></svg>