<svg id="Layer_1" data-name="Layer 1" xmlns="http://www.w3.org/2000/svg" viewBox="0 0 40 40"><defs><style>.cls-1,.cls-2{fill:none;stroke:#fff;stroke-miterlimit:10;stroke-width:2.5px;}.cls-2{stroke-linecap:round;}</style></defs><path class="cls-1" d="M26.86,37.43H13.14A6.67,6.67,0,0,1,6.52,30l1.67-14.8a5.38,5.38,0,0,1,5.34-4.76H26.47a5.38,5.38,0,0,1,5.34,4.76L33.48,30A6.67,6.67,0,0,1,26.86,37.43Z"/><path class="cls-2" d="M15.19,14.88A5.32,5.32,0,0,0,20,18.71a5.32,5.32,0,0,0,4.81-3.83"/><path class="cls-2" d="M24.74,6.24A5.28,5.28,0,0,0,20,2.57a5.28,5.28,0,0,0-4.74,3.67"/></svg>