<svg id="Detail" xmlns="http://www.w3.org/2000/svg" viewBox="0 0 16 16"><defs><style>.cls-1{fill:#0080b9;}</style></defs><path class="cls-1" d="M12.93,3.39l.54-1.26a4.65,4.65,0,0,0-2.32-.88,1.55,1.55,0,0,0-1.66,1,1.78,1.78,0,0,0,.4,1.54,3.79,3.79,0,0,1,.52.78.44.44,0,0,1,0,.43.44.44,0,0,1-.27.14A6.16,6.16,0,0,1,8.76,5L7.33,4.9A6,6,0,0,0,5,5.11,4,4,0,0,0,3.11,6.47,3.3,3.3,0,0,0,2.53,8.4a4.29,4.29,0,0,0,1,2.76A9.5,9.5,0,0,0,7.8,13.9a23.86,23.86,0,0,0,3,.85c.2-.45.38-.91.61-1.35a16,16,0,0,1-4.52-1.56A7.47,7.47,0,0,1,5.2,10.68a2.71,2.71,0,0,1-.82-3.2A2.4,2.4,0,0,1,5.66,6.35l0,0a2.28,2.28,0,0,1,.64-.13,14.47,14.47,0,0,1,2.7.22,3.5,3.5,0,0,0,2-.2,1.42,1.42,0,0,0,.66-1.79A6.26,6.26,0,0,0,11,3.21a.44.44,0,0,1-.05-.45.37.37,0,0,1,.24-.17,1.59,1.59,0,0,1,1,.3A4.7,4.7,0,0,1,12.93,3.39Z"/></svg>